<mxfile host="65bd71144e">
    <diagram id="OwxS-nafHUHIdLVc4l_e" name="Page-1">
        <mxGraphModel dx="691" dy="448" grid="1" gridSize="10" guides="1" tooltips="1" connect="1" arrows="1" fold="1" page="1" pageScale="1" pageWidth="850" pageHeight="1100" math="0" shadow="0">
            <root>
                <mxCell id="0"/>
                <mxCell id="1" parent="0"/>
                <mxCell id="2" value="" style="rounded=1;whiteSpace=wrap;html=1;" vertex="1" parent="1">
                    <mxGeometry x="120" y="80" width="270" height="300" as="geometry"/>
                </mxCell>
                <mxCell id="3" value="Back-End" style="text;html=1;align=center;verticalAlign=middle;resizable=0;points=[];autosize=1;strokeColor=none;fillColor=none;fontStyle=1" vertex="1" parent="1">
                    <mxGeometry x="215" y="80" width="80" height="30" as="geometry"/>
                </mxCell>
                <mxCell id="8" style="edgeStyle=none;html=1;startArrow=classicThin;startFill=1;flowAnimation=1;" edge="1" parent="1" source="4" target="7">
                    <mxGeometry relative="1" as="geometry"/>
                </mxCell>
                <mxCell id="4" value="WebService" style="image;aspect=fixed;html=1;points=[];align=center;fontSize=12;image=img/lib/azure2/app_services/App_Services.svg;" vertex="1" parent="1">
                    <mxGeometry x="150" y="145.5" width="42" height="42" as="geometry"/>
                </mxCell>
                <mxCell id="5" value="" style="rounded=1;whiteSpace=wrap;html=1;" vertex="1" parent="1">
                    <mxGeometry x="230" y="111" width="150" height="129" as="geometry"/>
                </mxCell>
                <mxCell id="6" value="Extract" style="text;html=1;align=center;verticalAlign=middle;resizable=0;points=[];autosize=1;strokeColor=none;fillColor=none;fontStyle=1" vertex="1" parent="1">
                    <mxGeometry x="275" y="110" width="60" height="30" as="geometry"/>
                </mxCell>
                <mxCell id="7" value="Relational&lt;br&gt;Database" style="image;aspect=fixed;html=1;points=[];align=center;fontSize=12;image=img/lib/azure2/databases/SQL_Database.svg;" vertex="1" parent="1">
                    <mxGeometry x="147" y="270" width="48" height="64" as="geometry"/>
                </mxCell>
                <mxCell id="9" value="Github &lt;br&gt;Extractor &lt;br&gt;Job" style="image;aspect=fixed;html=1;points=[];align=center;fontSize=12;image=img/lib/azure2/other/Update_Center.svg;" vertex="1" parent="1">
                    <mxGeometry x="255" y="145.5" width="40" height="40" as="geometry"/>
                </mxCell>
                <mxCell id="10" value="SonarQube&lt;br&gt;Extractor&lt;br&gt;Job" style="image;aspect=fixed;html=1;points=[];align=center;fontSize=12;image=img/lib/azure2/other/Update_Center.svg;" vertex="1" parent="1">
                    <mxGeometry x="320" y="145.5" width="40" height="40" as="geometry"/>
                </mxCell>
                <mxCell id="25" style="edgeStyle=none;html=1;startArrow=classic;startFill=1;flowAnimation=1;" edge="1" parent="1" source="14" target="4">
                    <mxGeometry relative="1" as="geometry">
                        <Array as="points">
                            <mxPoint x="220" y="302"/>
                        </Array>
                    </mxGeometry>
                </mxCell>
                <mxCell id="14" value="Graph &lt;br&gt;Database (neo4j)" style="image;aspect=fixed;html=1;points=[];align=center;fontSize=12;image=img/lib/azure2/databases/SQL_Database.svg;" vertex="1" parent="1">
                    <mxGeometry x="287" y="270" width="48" height="64" as="geometry"/>
                </mxCell>
                <mxCell id="16" value="" style="endArrow=classic;html=1;entryX=0.389;entryY=0.003;entryDx=0;entryDy=0;entryPerimeter=0;exitX=0.5;exitY=1;exitDx=0;exitDy=0;" edge="1" parent="1" source="5" target="14">
                    <mxGeometry width="50" height="50" relative="1" as="geometry">
                        <mxPoint x="290" y="260" as="sourcePoint"/>
                        <mxPoint x="340" y="210" as="targetPoint"/>
                    </mxGeometry>
                </mxCell>
                <mxCell id="20" value="Dashboard" style="image;aspect=fixed;html=1;points=[];align=center;fontSize=12;image=img/lib/azure2/management_governance/Metrics.svg;" vertex="1" parent="1">
                    <mxGeometry x="30" y="142.25" width="45.65" height="48.5" as="geometry"/>
                </mxCell>
                <mxCell id="22" style="edgeStyle=none;html=1;entryX=0.021;entryY=0.426;entryDx=0;entryDy=0;entryPerimeter=0;flowAnimation=1;" edge="1" parent="1" source="4" target="5">
                    <mxGeometry relative="1" as="geometry">
                        <mxPoint x="240" y="166" as="targetPoint"/>
                    </mxGeometry>
                </mxCell>
                <mxCell id="23" style="edgeStyle=none;html=1;entryX=-0.007;entryY=0.287;entryDx=0;entryDy=0;entryPerimeter=0;startArrow=classicThin;startFill=1;flowAnimation=1;" edge="1" parent="1" source="20" target="2">
                    <mxGeometry relative="1" as="geometry"/>
                </mxCell>
                <mxCell id="26" value="" style="image;sketch=0;aspect=fixed;html=1;points=[];align=center;fontSize=12;image=img/lib/mscae/CustomDomain.svg;" vertex="1" parent="1">
                    <mxGeometry x="28" y="80" width="50" height="42" as="geometry"/>
                </mxCell>
            </root>
        </mxGraphModel>
    </diagram>
</mxfile>